<svg width="60" height="61" viewBox="0 0 60 61" fill="none" xmlns="http://www.w3.org/2000/svg">
<path d="M1.4063 21.2294V30.5379H0V21.2274C0 16.8117 2.62118 12.9508 6.53732 11.3483C5.0822 10.1574 4.19936 8.33827 4.19936 6.38194C4.19936 2.86293 7.01195 0 10.4691 0C13.9262 0 16.7388 2.86293 16.7388 6.38194C16.7388 8.33827 15.856 10.1554 14.4009 11.3503C18.317 12.9527 20.9382 16.8137 20.9382 21.2294V30.5379H19.5319V21.2274C19.5319 16.933 16.6666 13.243 12.5668 12.2529C12.2738 12.1833 12.057 11.9289 12.0297 11.6247C12.0023 11.3185 12.1684 11.0282 12.4438 10.903C14.1997 10.1077 15.3345 8.3323 15.3345 6.37995C15.3345 3.65023 13.1528 1.42947 10.471 1.42947C7.78932 1.42947 5.60565 3.65222 5.60565 6.38194C5.60565 8.33429 6.74045 10.1097 8.49637 10.905C8.77177 11.0302 8.93779 11.3205 8.91045 11.6247C8.8831 11.9308 8.6663 12.1853 8.37137 12.2549C4.27162 13.245 1.4063 16.935 1.4063 21.2294ZM53.4666 41.1724C54.9217 39.9776 55.8046 38.1584 55.8046 36.2041C55.8046 32.6831 52.992 29.8221 49.5329 29.8221C46.0738 29.8221 43.2612 32.6831 43.2612 36.2041C43.2612 38.1584 44.144 39.9776 45.5991 41.1724C41.683 42.7749 39.0618 46.6359 39.0618 51.0515V60.36H40.4701V51.0495C40.4701 46.7551 43.3334 43.0652 47.4332 42.0751C47.7262 42.0035 47.943 41.751 47.9703 41.4448C47.9996 41.1406 47.8316 40.8484 47.5562 40.7251C45.8003 39.9318 44.6675 38.1564 44.6675 36.2041C44.6675 33.4744 46.8492 31.2536 49.5309 31.2536C52.2126 31.2536 54.3943 33.4744 54.3943 36.2041C54.3943 38.1564 53.2615 39.9318 51.5056 40.7251C51.2302 40.8484 51.0622 41.1406 51.0915 41.4448C51.1208 41.751 51.3357 42.0035 51.6286 42.0751C55.7303 43.0652 58.5918 46.7551 58.5918 51.0495V60.36H60V51.0495C60.002 46.6359 57.3827 42.7729 53.4666 41.1724ZM11.1722 44.4549V34.2537L15.8325 38.9974L16.8267 37.9835L10.4691 31.514L4.11341 37.9835L5.10759 38.9974L9.7679 34.2537V44.4549C9.7679 49.2344 13.5883 53.1232 18.2838 53.1232H35.8625V51.6917H18.2838C14.3618 51.6917 11.1722 48.4451 11.1722 44.4549ZM48.8297 14.6327V24.8319L44.1714 20.0902L43.1752 21.1021L49.5329 27.5735L55.8905 21.1021L54.8944 20.0902L50.236 24.8319V14.6327C50.236 9.85323 46.4156 5.96443 41.7201 5.96443H20.235V7.39589H41.7201C45.6402 7.39589 48.8297 10.6425 48.8297 14.6327Z" fill="#000056"/>
</svg>
