<svg width="61" height="61" viewBox="0 0 61 61" fill="none" xmlns="http://www.w3.org/2000/svg">
<g clip-path="url(#clip0_1_604)">
<path d="M55.6872 56.0362H4.75419C2.25447 56.0362 0.220703 54.0024 0.220703 51.5027V18.9584C0.220703 16.4587 2.25447 14.4249 4.75419 14.4249H8.79465V12.3696C8.79465 11.919 9.15977 11.5539 9.61038 11.5539H15.3936C15.8442 11.5539 16.2093 11.919 16.2093 12.3696V14.4249H21.6531V11.4668C21.6531 8.27533 24.2497 5.67871 27.4409 5.67871H33.0002C36.1917 5.67871 38.7883 8.27533 38.7883 11.4668V14.4249H44.2321V12.3696C44.2321 11.919 44.5972 11.5539 45.0479 11.5539H50.831C51.2816 11.5539 51.6468 11.919 51.6468 12.3696V14.4249H55.6872C58.1869 14.4249 60.2207 16.4584 60.2207 18.9584V51.5027C60.2207 54.0024 58.1869 56.0362 55.6872 56.0362ZM4.75419 16.0564C3.15406 16.0564 1.85216 17.358 1.85216 18.9584V51.5027C1.85216 53.1028 3.15406 54.405 4.75419 54.405H55.6872C57.2873 54.405 58.5892 53.1031 58.5892 51.5027V18.9584C58.5892 17.3583 57.2873 16.0564 55.6872 16.0564H4.75419ZM45.8636 14.4249H50.0153V13.1854H45.8636V14.4249ZM23.2846 14.4249H37.1568V11.4668C37.1568 9.17492 35.2924 7.31017 33.0002 7.31017H27.4409C25.149 7.31017 23.2846 9.17492 23.2846 11.4668V14.4249ZM10.4261 14.4249H14.5778V13.1854H10.4261V14.4249ZM27.0748 45.1354H20.0719C19.6213 45.1354 19.2562 44.7703 19.2562 44.3197V37.3172C19.2562 36.8666 19.6213 36.5015 20.0719 36.5015H27.0744C27.5251 36.5015 27.8902 36.8666 27.8902 37.3172V44.3197C27.8905 44.7703 27.5254 45.1354 27.0748 45.1354ZM20.8876 43.504H26.2587V38.1329H20.8876V43.504ZM30.8203 34.9222C30.6114 34.9222 30.4026 34.8426 30.2434 34.6834L26.4979 30.9379C26.3449 30.7848 26.259 30.5776 26.259 30.361C26.259 30.1443 26.3449 29.9371 26.4979 29.7841L30.2434 26.0386C30.5494 25.7325 31.0911 25.7325 31.3968 26.0386L35.1423 29.7841C35.2953 29.9371 35.3812 30.1443 35.3812 30.361C35.3812 30.5776 35.2953 30.7848 35.1423 30.9379L31.3968 34.6834C31.2379 34.8426 31.0288 34.9222 30.8203 34.9222ZM28.2282 30.3613L30.8199 32.953L33.4117 30.3613L30.8199 27.7693L28.2282 30.3613ZM12.2083 34.8971C11.3577 34.8971 10.6258 34.2921 10.4688 33.4581L9.96636 30.7923C9.9582 30.7493 9.92916 30.7127 9.8887 30.6948L7.40791 29.5975C6.78926 29.324 6.38695 28.7341 6.35856 28.058C6.33017 27.3816 6.68126 26.7597 7.27511 26.4347L9.65508 25.1332C9.69358 25.1123 9.71936 25.0731 9.72392 25.0297L10.0009 22.331C10.0939 21.4268 10.8509 20.7449 11.7619 20.7449C12.2099 20.7449 12.638 20.9162 12.9679 21.2271L14.9413 23.0886C14.9661 23.1118 14.9987 23.1248 15.0327 23.1248L17.7135 22.5512C18.4372 22.3952 19.1828 22.7114 19.5773 23.3346C19.9019 23.8472 19.9401 24.4819 19.68 25.0317L18.5194 27.4837C18.5005 27.5232 18.5025 27.5702 18.525 27.6084L19.8869 29.9538C20.2077 30.5065 20.2093 31.1666 19.8911 31.7193C19.5384 32.3324 18.8614 32.6858 18.1357 32.5909L15.4451 32.245C15.3913 32.2401 15.3537 32.26 15.3283 32.2884L13.5184 34.3085C13.178 34.6883 12.7131 34.8971 12.2083 34.8971ZM11.7619 22.3763C11.7567 22.3763 11.636 22.378 11.6239 22.4977L11.3469 25.1961C11.2878 25.774 10.9482 26.2856 10.4382 26.5646L8.05788 27.8662C8.03994 27.876 7.98512 27.906 7.98871 27.9892C7.9923 28.0721 8.04907 28.0972 8.068 28.105L10.5491 29.2027C11.0803 29.4379 11.4621 29.9189 11.5698 30.4895L12.0722 33.1557C12.0921 33.2598 12.1891 33.2653 12.2086 33.2653C12.2465 33.2653 12.2745 33.2516 12.3033 33.2199L14.1135 31.1996C14.4979 30.7708 15.0741 30.5528 15.653 30.6269L18.3439 30.9728C18.4212 30.9731 18.4626 30.9313 18.4773 30.9056C18.5152 30.84 18.4868 30.7914 18.4764 30.7734L17.1141 28.4277C16.8227 27.9252 16.7966 27.3118 17.0449 26.7868L18.2059 24.3341C18.2153 24.3142 18.2375 24.2675 18.1993 24.2075C18.1879 24.1895 18.1413 24.1275 18.0567 24.1461L15.4046 24.7165C14.8434 24.8375 14.2424 24.6708 13.8225 24.2747L11.8491 22.4135C11.8207 22.3881 11.7942 22.3763 11.7619 22.3763ZM46.4206 28.8362C44.1897 28.8362 42.3749 27.0214 42.3749 24.7909C42.3749 22.5603 44.1897 20.7452 46.4206 20.7452C48.6514 20.7452 50.4662 22.5603 50.4662 24.7909C50.4662 27.0214 48.6514 28.8362 46.4206 28.8362ZM46.4206 22.3763C45.0893 22.3763 44.0063 23.4593 44.0063 24.7905C44.0063 26.1215 45.0893 27.2044 46.4206 27.2044C47.7518 27.2044 48.8348 26.1215 48.8348 24.7905C48.8351 23.4596 47.7518 22.3763 46.4206 22.3763Z" fill="#000056"/>
</g>
<defs>
<clipPath id="clip0_1_604">
<rect width="60" height="60" fill="white" transform="translate(0.220703 0.857422)"/>
</clipPath>
</defs>
</svg>
