<svg width="124" height="123" viewBox="0 0 124 123" fill="none" xmlns="http://www.w3.org/2000/svg">
<circle cx="71.2614" cy="47.3936" r="16.3732" fill="#FB6942"/>
<mask id="mask0_1_1278" style="mask-type:luminance" maskUnits="userSpaceOnUse" x="0" y="54" width="11" height="10">
<path d="M10.1968 57.4746C10.1968 57.4746 8.19316 60.7556 8.7288 63.5571C8.7288 63.5571 5.65447 56.3672 0.762108 54.5553C0.762108 54.5553 5.91561 53.2529 10.1968 57.4746Z" fill="white"/>
</mask>
<g mask="url(#mask0_1_1278)">
<path d="M0.761864 53.2532H10.1965V63.5568H0.761864V53.2532Z" fill="#1DC6C6"/>
</g>
<mask id="mask1_1_1278" style="mask-type:luminance" maskUnits="userSpaceOnUse" x="10" y="73" width="54" height="30">
<path d="M42.7586 92.0653C47.4809 92.3653 52.3544 92.5898 56.9067 93.1571C60.1583 96.2775 62.5758 99.4102 63.5776 102.241C59.1181 99.8947 53.1995 98.9473 46.9425 98.4028C38.1907 97.6411 28.7794 97.6677 21.7795 95.758C14.8418 93.865 10.2723 90.0683 11.0618 81.716C11.3658 78.4967 12.951 75.7279 15.8925 74.4772C16.4048 74.2594 16.9571 74.0877 17.5528 73.9677C17.3522 74.6356 17.2188 75.339 17.1499 76.0658C15.872 89.5866 28.6366 91.1679 42.7586 92.0653Z" fill="white"/>
</mask>
<g mask="url(#mask1_1_1278)">
<path d="M10.2723 73.9677H63.5776V102.241H10.2723V73.9677Z" fill="#1DC6C6"/>
</g>
<mask id="mask2_1_1278" style="mask-type:luminance" maskUnits="userSpaceOnUse" x="5" y="56" width="50" height="67">
<path d="M9.7762 57.0758C9.7762 57.0758 24.0682 52.4835 25.3173 71.4462C25.3173 71.4462 55.8138 92.1319 54.4825 122.991C42.8242 95.9224 20.0882 106.291 9.81898 89.4309C4.46266 80.6375 4.78716 66.3338 9.7762 57.0758Z" fill="white"/>
</mask>
<g mask="url(#mask2_1_1278)">
<path d="M4.46473 52.4838H55.8159V122.991H4.46473V52.4838Z" fill="#1DC6C6"/>
</g>
<mask id="mask3_1_1278" style="mask-type:luminance" maskUnits="userSpaceOnUse" x="11" y="70" width="53" height="30">
<path d="M63.7534 99.0576C46.8738 90.1758 9.08288 101.337 11.2376 78.5325C11.6627 74.0335 14.5892 70.4147 20.2211 70.5892C32.0367 70.9548 59.6667 87.5082 63.7534 99.0576Z" fill="white"/>
</mask>
<g mask="url(#mask3_1_1278)">
<path d="M9.08287 70.4146H63.7534V101.337H9.08287V70.4146Z" fill="#1DC6C6"/>
</g>
<path fill-rule="evenodd" clip-rule="evenodd" d="M71.6974 -9.15527e-05C43.2702 -9.15527e-05 20.1948 23.2895 20.1948 51.8682C20.1948 53.1473 20.2476 54.4234 20.3496 55.695C23.4287 57.5397 26.1888 61.449 26.7125 69.3974C32.0586 70.8378 38.7274 73.9221 45.0734 77.7644C39.8268 69.673 36.135 60.6973 36.135 51.8682C36.135 32.0326 52.1231 15.9399 71.6976 15.9399C91.272 15.9399 107.26 32.0326 107.26 51.8682C107.26 64.4246 99.7897 77.2795 91 87.465C86.6609 92.4931 82.1306 96.718 78.323 99.7513C76.4179 101.269 74.7287 102.46 73.366 103.297C73.2083 103.393 73.0565 103.484 72.9108 103.57L56.7166 113.473C57.0566 113.723 57.3942 113.967 57.7292 114.205C60.3402 116.058 62.8481 117.568 65.1183 118.629C67.3032 119.651 69.6031 120.418 71.6974 120.418C73.7918 120.418 76.0917 119.651 78.2766 118.629C80.5468 117.568 83.0547 116.058 85.6657 114.205C90.8925 110.495 96.7592 105.251 102.262 98.9872C113.174 86.5671 123.2 69.5045 123.2 51.8682C123.2 23.2895 100.125 -9.15527e-05 71.6974 -9.15527e-05Z" fill="url(#paint0_angular_1_1278)"/>
<defs>
<radialGradient id="paint0_angular_1_1278" cx="0" cy="0" r="1" gradientUnits="userSpaceOnUse" gradientTransform="translate(71.6975 60.209) rotate(90) scale(60.2091 51.5026)">
<stop offset="0.700657" stop-color="#FB6942"/>
<stop offset="1" stop-color="#FEA919"/>
</radialGradient>
</defs>
</svg>
