<svg width="120" height="35" viewBox="0 0 120 35" fill="none" xmlns="http://www.w3.org/2000/svg">
<circle cx="41.1853" cy="13.3155" r="4.60025" fill="#FB6942"/>
<mask id="mask0_1_483" style="mask-type:luminance" maskUnits="userSpaceOnUse" x="21" y="15" width="4" height="3">
<path d="M24.0242 16.1485C24.0242 16.1485 23.4612 17.0703 23.6117 17.8574C23.6117 17.8574 22.748 15.8373 21.3734 15.3282C21.3734 15.3282 22.8213 14.9623 24.0242 16.1485Z" fill="white"/>
</mask>
<g mask="url(#mask0_1_483)">
<path d="M21.3733 14.962H24.024V17.857H21.3733V14.962Z" fill="#1DC6C6"/>
</g>
<mask id="mask1_1_483" style="mask-type:luminance" maskUnits="userSpaceOnUse" x="24" y="20" width="16" height="9">
<path d="M33.1736 25.868C34.5004 25.9523 35.8696 26.0154 37.1487 26.1748C38.0622 27.0515 38.7415 27.9317 39.0229 28.727C37.77 28.0678 36.1071 27.8016 34.3491 27.6486C31.8902 27.4346 29.2459 27.4421 27.2792 26.9055C25.33 26.3736 24.0462 25.3069 24.268 22.9603C24.3534 22.0557 24.7988 21.2778 25.6252 20.9264C25.7692 20.8652 25.9243 20.817 26.0917 20.7833C26.0353 20.9709 25.9979 21.1685 25.9785 21.3727C25.6195 25.1716 29.2058 25.6159 33.1736 25.868Z" fill="white"/>
</mask>
<g mask="url(#mask1_1_483)">
<path d="M24.0459 20.7828H39.0227V28.7266H24.0459V20.7828Z" fill="#1DC6C6"/>
</g>
<mask id="mask2_1_483" style="mask-type:luminance" maskUnits="userSpaceOnUse" x="22" y="15" width="15" height="20">
<path d="M23.9074 16.0358C23.9074 16.0358 27.9229 14.7455 28.2739 20.0733C28.2739 20.0733 36.8422 25.8852 36.4682 34.5555C33.1927 26.9502 26.8047 29.8634 23.9194 25.1263C22.4145 22.6557 22.5057 18.6369 23.9074 16.0358Z" fill="white"/>
</mask>
<g mask="url(#mask2_1_483)">
<path d="M22.4155 14.7453H36.8433V34.5552H22.4155V14.7453Z" fill="#1DC6C6"/>
</g>
<mask id="mask3_1_483" style="mask-type:luminance" maskUnits="userSpaceOnUse" x="24" y="19" width="16" height="9">
<path d="M39.0709 27.8315C34.3284 25.3361 23.7106 28.4719 24.316 22.0647C24.4354 20.8007 25.2576 19.7839 26.84 19.8329C30.1597 19.9357 37.9227 24.5866 39.0709 27.8315Z" fill="white"/>
</mask>
<g mask="url(#mask3_1_483)">
<path d="M23.71 19.7839H39.0703V28.4718H23.71V19.7839Z" fill="#1DC6C6"/>
</g>
<path fill-rule="evenodd" clip-rule="evenodd" d="M41.3016 0C33.3146 0 26.8313 6.5435 26.8313 14.573C26.8313 14.9322 26.8461 15.2905 26.8747 15.6475C27.7403 16.1656 28.5164 17.264 28.6636 19.4982L28.6645 19.4989C30.1664 19.9039 32.0394 20.7704 33.8217 21.8496C32.3474 19.5761 31.3099 17.0539 31.3099 14.573C31.3099 8.99996 35.8019 4.47855 41.3016 4.47855C46.8013 4.47855 51.2934 8.99996 51.2934 14.573C51.2934 18.1009 49.1944 21.7126 46.7249 24.5744C45.5058 25.9871 44.2329 27.1741 43.1631 28.0264C42.6279 28.4528 42.1533 28.7875 41.7704 29.0225C41.7261 29.0496 41.6834 29.0752 41.6425 29.0992L37.0925 31.8816C37.1881 31.9519 37.2829 32.0204 37.377 32.0872C38.1106 32.6078 38.8153 33.0321 39.4531 33.3303C40.067 33.6174 40.7132 33.833 41.3016 33.833C41.89 33.833 42.5362 33.6174 43.1501 33.3303C43.7879 33.0321 44.4925 32.6078 45.2262 32.0872C46.6947 31.0451 48.343 29.5717 49.8892 27.8117C52.9549 24.3221 55.7719 19.5282 55.7719 14.573C55.7719 6.5435 49.2886 0 41.3016 0Z" fill="url(#paint0_angular_1_483)"/>
<path d="M119.128 3.74536V30.5767H112.593V3.74536H119.128Z" fill="#000056"/>
<path d="M101.343 30.5767L95.7631 20.448H94.196V30.5767H87.6602V3.74536H98.6296C100.745 3.74536 102.541 4.11483 104.019 4.85377C105.522 5.59272 106.643 6.61195 107.382 7.91147C108.121 9.18551 108.491 10.6124 108.491 12.1922C108.491 13.9759 107.981 15.5685 106.962 16.9699C105.968 18.3713 104.49 19.3651 102.528 19.9512L108.72 30.5767H101.343ZM94.196 15.8233H98.2474C99.445 15.8233 100.337 15.5302 100.923 14.9442C101.534 14.3581 101.84 13.53 101.84 12.4598C101.84 11.4406 101.534 10.6379 100.923 10.0519C100.337 9.4658 99.445 9.17277 98.2474 9.17277H94.196V15.8233Z" fill="#000056"/>
<path d="M67.1302 3.74536V19.7983C67.1302 21.4036 67.5251 22.6394 68.315 23.5057C69.105 24.3721 70.2643 24.8052 71.7932 24.8052C73.322 24.8052 74.4941 24.3721 75.3095 23.5057C76.1249 22.6394 76.5326 21.4036 76.5326 19.7983V3.74536H83.0684V19.76C83.0684 22.1552 82.5588 24.181 81.5396 25.8372C80.5203 27.4935 79.1444 28.742 77.4117 29.5829C75.7045 30.4238 73.7934 30.8442 71.6785 30.8442C69.5636 30.8442 67.6653 30.4365 65.9836 29.6211C64.3273 28.7803 63.015 27.5317 62.0468 25.8754C61.0785 24.1937 60.5944 22.1552 60.5944 19.76V3.74536H67.1302Z" fill="#000056"/>
<path d="M20.7541 3.74536V8.98167H13.645V30.5767H7.10915V8.98167H0V3.74536H20.7541Z" fill="#000056"/>
<defs>
<radialGradient id="paint0_angular_1_483" cx="0" cy="0" r="1" gradientUnits="userSpaceOnUse" gradientTransform="translate(41.3016 16.9165) rotate(90) scale(16.9165 14.4703)">
<stop offset="0.700657" stop-color="#FB6942"/>
<stop offset="1" stop-color="#FEA919"/>
</radialGradient>
</defs>
</svg>
